<svg xmlns="http://www.w3.org/2000/svg" viewBox="0 0 300 600">
  <!-- Phone Frame -->
  <rect x="10" y="10" width="280" height="580" rx="30" fill="#111111"/>
  <rect x="20" y="20" width="260" height="560" rx="25" fill="#FFFFFF"/>
  
  <!-- Status Bar -->
  <rect x="20" y="20" width="260" height="40" rx="10" fill="#FF6B35"/>
  <text x="150" y="45" font-family="Arial" font-size="16" font-weight="bold" fill="#FFFFFF" text-anchor="middle">ScanEat</text>
  
  <!-- QR Code Scanner UI -->
  <rect x="40" y="80" width="220" height="150" rx="10" fill="#F5F5F5"/>
  <rect x="70" y="95" width="160" height="120" rx="5" fill="#E0E0E0"/>
  <rect x="85" y="110" width="130" height="90" fill="#FFFFFF"/>
  
  <!-- QR Code -->
  <rect x="100" y="120" width="100" height="100" fill="#F8F9FA"/>
  <rect x="110" y="130" width="20" height="20" fill="#000000"/>
  <rect x="170" y="130" width="20" height="20" fill="#000000"/>
  <rect x="110" y="190" width="20" height="20" fill="#000000"/>
  <rect x="130" y="130" width="10" height="10" fill="#000000"/>
  <rect x="150" y="130" width="10" height="10" fill="#000000"/>
  <rect x="130" y="150" width="10" height="10" fill="#000000"/>
  <rect x="150" y="150" width="10" height="10" fill="#000000"/>
  <rect x="170" y="150" width="10" height="10" fill="#000000"/>
  <rect x="130" y="170" width="10" height="10" fill="#000000"/>
  <rect x="150" y="170" width="10" height="10" fill="#000000"/>
  <rect x="170" y="170" width="10" height="10" fill="#000000"/>
  <rect x="130" y="190" width="10" height="10" fill="#000000"/>
  <rect x="150" y="190" width="10" height="10" fill="#000000"/>
  <rect x="170" y="190" width="10" height="10" fill="#000000"/>
  
  <!-- Scan Text -->
  <text x="150" y="255" font-family="Arial" font-size="14" font-weight="bold" fill="#2E294E" text-anchor="middle">Scan QR Code</text>
  
  <!-- Menu Items -->
  <rect x="40" y="280" width="220" height="60" rx="5" fill="#F8F9FA"/>
  <rect x="50" y="290" width="40" height="40" rx="5" fill="#FF6B35"/>
  <rect x="100" y="295" width="150" height="10" rx="2" fill="#2E294E"/>
  <rect x="100" y="315" width="100" height="10" rx="2" fill="#6C757D"/>
  
  <rect x="40" y="350" width="220" height="60" rx="5" fill="#F8F9FA"/>
  <rect x="50" y="360" width="40" height="40" rx="5" fill="#FF6B35"/>
  <rect x="100" y="365" width="150" height="10" rx="2" fill="#2E294E"/>
  <rect x="100" y="385" width="100" height="10" rx="2" fill="#6C757D"/>
  
  <rect x="40" y="420" width="220" height="60" rx="5" fill="#F8F9FA"/>
  <rect x="50" y="430" width="40" height="40" rx="5" fill="#FF6B35"/>
  <rect x="100" y="435" width="150" height="10" rx="2" fill="#2E294E"/>
  <rect x="100" y="455" width="100" height="10" rx="2" fill="#6C757D"/>
  
  <!-- Bottom Navigation -->
  <rect x="20" y="520" width="260" height="60" rx="5" fill="#F8F9FA"/>
  <circle cx="75" cy="550" r="15" fill="#F0F0F0"/>
  <circle cx="150" cy="550" r="15" fill="#FF6B35"/>
  <circle cx="225" cy="550" r="15" fill="#F0F0F0"/>
</svg>
